<?xml version="1.0" encoding="UTF-8"?>
<svg xmlns="http://www.w3.org/2000/svg" version="1.1" viewBox="0 0 32 32">
  <!-- Generator: Adobe Illustrator 29.8.4, SVG Export Plug-In . SVG Version: 2.1.1 Build 6)  -->
  <defs>
    <style>
      .st0 {
        fill: none;
      }

      .st1 {
        fill: #fff;
        font-family: FunnelDisplay-Regular, 'Funnel Display';
        font-size: 11.75px;
      }

      .st2 {
        fill: #1e1e1e;
      }

      .st3 {
        fill: #b3b2b3;
      }

      .st4 {
        display: none;
      }

      .st5 {
        fill: #702c91;
      }
    </style>
  </defs>
  <g id="Ebene_1" class="st4">
    <g>
      <path class="st5" d="M16,28.33984c-.21582,0-.43164-.05566-.625-.16699l-9.60449-5.54492c-.38672-.22363-.625-.63672-.625-1.08301v-11.08984c0-.44678.23828-.85938.625-1.08252L15.375,3.82764c.19336-.11182.40918-.16748.625-.16748s.43164.05566.625.16748l9.60449,5.54492c.38672.22314.625.63574.625,1.08252v11.08984c0,.44629-.23828.85938-.625,1.08301l-9.60449,5.54492c-.19336.11133-.40918.16699-.625.16699Z"/>
      <path class="st5" d="M16,4.90997l9.60425,5.54501v11.09004l-9.60425,5.54501-9.60425-5.54501v-11.09004l9.60425-5.54501M16,2.40997c-.43163,0-.86325.11165-1.25.33494l-9.60425,5.54501c-.7735.44658-1.25,1.2719-1.25,2.16506v11.09004c0,.89316.4765,1.71848,1.25,2.16506l9.60425,5.54501c.38675.2233.81837.33494,1.25.33494s.86325-.11165,1.25-.33494l9.60425-5.54501c.7735-.44658,1.25-1.2719,1.25-2.16506v-11.09004c0-.89316-.4765-1.71848-1.25-2.16506l-9.60425-5.54501c-.38675-.22329-.81837-.33494-1.25-.33494h0Z"/>
    </g>
    <text class="st1" transform="translate(5.86572 19.99822)"><tspan x="0" y="0">100</tspan></text>
  </g>
  <g id="Ebene_1_Kopie">
    <rect class="st0" width="32" height="32"/>
    <g>
      <path class="st3" d="M16,28.33984c-.21582,0-.43164-.05566-.625-.16699l-9.60449-5.54492c-.38672-.22363-.625-.63672-.625-1.08301v-11.08984c0-.44678.23828-.85938.625-1.08252L15.375,3.82764c.19336-.11182.40918-.16748.625-.16748s.43164.05566.625.16748l9.60449,5.54492c.38672.22314.625.63574.625,1.08252v11.08984c0,.44629-.23828.85938-.625,1.08301l-9.60449,5.54492c-.19336.11133-.40918.16699-.625.16699Z"/>
      <path class="st3" d="M16,4.90997l9.60425,5.54501v11.09004l-9.60425,5.54501-9.60425-5.54501v-11.09004l9.60425-5.54501M16,2.40997c-.43163,0-.86325.11165-1.25.33494l-9.60425,5.54501c-.7735.44658-1.25,1.2719-1.25,2.16506v11.09004c0,.89316.4765,1.71848,1.25,2.16506l9.60425,5.54501c.38675.2233.81837.33494,1.25.33494s.86325-.11165,1.25-.33494l9.60425-5.54501c.7735-.44658,1.25-1.2719,1.25-2.16506v-11.09004c0-.89316-.4765-1.71848-1.25-2.16506l-9.60425-5.54501c-.38675-.22329-.81837-.33494-1.25-.33494h0Z"/>
    </g>
    <g>
      <path class="st2" d="M7.30518,19.99805v-.91016h2.09521v-5.79736l-2.23242,1.52783h-.03906v-1.10645l2.42822-1.64502h.93994v7.021h1.79199v.91016h-4.98389Z"/>
      <path class="st2" d="M15.64746,20.11523c-.94629,0-1.66455-.34766-2.15381-1.04297-.48975-.69434-.73438-1.70801-.73438-3.04004,0-1.33154.24463-2.34473.73438-3.04004.48926-.69531,1.20752-1.04297,2.15381-1.04297.94678,0,1.66504.34766,2.1543,1.04297s.73438,1.7085.73438,3.04004c0,1.33203-.24512,2.3457-.73438,3.04004-.48926.69531-1.20752,1.04297-2.1543,1.04297ZM15.64746,19.17578c.61377,0,1.07227-.2627,1.37598-.78809.30371-.52637.45508-1.31055.45508-2.35547,0-1.05078-.15137-1.8374-.45508-2.35938-.30371-.52246-.76221-.78369-1.37598-.78369-.60693,0-1.06396.25977-1.37061.77881-.30713.51855-.46045,1.30713-.46045,2.36426,0,1.05762.15332,1.8457.46045,2.36523.30664.51855.76367.77832,1.37061.77832Z"/>
      <path class="st2" d="M22.40332,20.11523c-.94629,0-1.66406-.34766-2.1543-1.04297-.48926-.69434-.73438-1.70801-.73438-3.04004,0-1.33154.24512-2.34473.73438-3.04004.49023-.69531,1.20801-1.04297,2.1543-1.04297s1.66504.34766,2.1543,1.04297.73438,1.7085.73438,3.04004c0,1.33203-.24512,2.3457-.73438,3.04004-.48926.69531-1.20801,1.04297-2.1543,1.04297ZM22.40332,19.17578c.61328,0,1.07227-.2627,1.37598-.78809.30371-.52637.45508-1.31055.45508-2.35547,0-1.05078-.15137-1.8374-.45508-2.35938-.30371-.52246-.7627-.78369-1.37598-.78369-.60645,0-1.06348.25977-1.37109.77881-.30664.51855-.45996,1.30713-.45996,2.36426,0,1.05762.15332,1.8457.45996,2.36523.30762.51855.76465.77832,1.37109.77832Z"/>
    </g>
  </g>
</svg>