<?xml version="1.0" encoding="UTF-8"?>
<svg id="Ebene_1_Kopie" data-name="Ebene 1 Kopie" xmlns="http://www.w3.org/2000/svg" viewBox="0 0 32 32.73">
  <defs>
    <style>
      .cls-1 {
        fill: none;
      }

      .cls-2 {
        fill: #e20085;
      }

      .cls-3 {
        fill: #fff;
      }
    </style>
  </defs>
  <g>
    <path class="cls-2" d="M16,28.34c-.22,0-.43-.06-.62-.17l-9.6-5.54c-.39-.22-.62-.64-.62-1.08v-11.09c0-.45.24-.86.62-1.08L15.38,3.83c.19-.11.41-.17.62-.17s.43.06.62.17l9.6,5.54c.39.22.62.64.62,1.08v11.09c0,.45-.24.86-.62,1.08l-9.6,5.54c-.19.11-.41.17-.62.17Z"/>
    <path class="cls-2" d="M16,4.91l9.6,5.55v11.09l-9.6,5.55-9.6-5.55v-11.09l9.6-5.55M16,2.41c-.43,0-.86.11-1.25.33l-9.6,5.55c-.77.45-1.25,1.27-1.25,2.17v11.09c0,.89.48,1.72,1.25,2.17l9.6,5.55c.39.22.82.33,1.25.33s.86-.11,1.25-.33l9.6-5.55c.77-.45,1.25-1.27,1.25-2.17v-11.09c0-.89-.48-1.72-1.25-2.17l-9.6-5.55c-.39-.22-.82-.33-1.25-.33h0Z"/>
  </g>
  <g>
    <path class="cls-3" d="M7.31,20v-.91h2.1v-5.8l-2.23,1.53h-.04v-1.11l2.43-1.65h.94v7.02h1.79v.91h-4.98Z"/>
    <path class="cls-3" d="M15.65,20.12c-.95,0-1.66-.35-2.15-1.04-.49-.69-.73-1.71-.73-3.04s.24-2.34.73-3.04c.49-.7,1.21-1.04,2.15-1.04s1.67.35,2.15,1.04.73,1.71.73,3.04-.25,2.35-.73,3.04c-.49.7-1.21,1.04-2.15,1.04ZM15.65,19.18c.61,0,1.07-.26,1.38-.79.3-.53.46-1.31.46-2.36s-.15-1.84-.46-2.36c-.3-.52-.76-.78-1.38-.78s-1.06.26-1.37.78c-.31.52-.46,1.31-.46,2.36s.15,1.85.46,2.37c.31.52.76.78,1.37.78Z"/>
    <path class="cls-3" d="M22.4,20.12c-.95,0-1.66-.35-2.15-1.04-.49-.69-.73-1.71-.73-3.04s.25-2.34.73-3.04c.49-.7,1.21-1.04,2.15-1.04s1.67.35,2.15,1.04.73,1.71.73,3.04-.25,2.35-.73,3.04c-.49.7-1.21,1.04-2.15,1.04ZM22.4,19.18c.61,0,1.07-.26,1.38-.79.3-.53.46-1.31.46-2.36s-.15-1.84-.46-2.36c-.3-.52-.76-.78-1.38-.78s-1.06.26-1.37.78c-.31.52-.46,1.31-.46,2.36s.15,1.85.46,2.37c.31.52.76.78,1.37.78Z"/>
  </g>
  <rect class="cls-1" width="32" height="32"/>
</svg>