<?xml version="1.0" encoding="UTF-8"?>
<svg xmlns="http://www.w3.org/2000/svg" viewBox="0 0 32 32.73">
  <defs>
    <style>
      .cls-1 {
        fill: none;
      }

      .cls-2 {
        fill: #fff;
      }

      .cls-3 {
        fill: #cac9ca;
      }

      .cls-4 {
        fill: #702c91;
      }
    </style>
  </defs>
  <g id="Ebene_1_Kopie_2" data-name="Ebene 1 Kopie 2">
    <g>
      <path class="cls-4" d="M16,28.34c-.22,0-.43-.06-.62-.17l-9.6-5.54c-.39-.22-.62-.64-.62-1.08v-11.09c0-.45.24-.86.62-1.08L15.38,3.83c.19-.11.41-.17.62-.17s.43.06.62.17l9.6,5.54c.39.22.62.64.62,1.08v11.09c0,.45-.24.86-.62,1.08l-9.6,5.54c-.19.11-.41.17-.62.17Z"/>
      <path class="cls-4" d="M16,4.91l9.6,5.55v11.09l-9.6,5.55-9.6-5.55v-11.09l9.6-5.55M16,2.41c-.43,0-.86.11-1.25.33l-9.6,5.55c-.77.45-1.25,1.27-1.25,2.17v11.09c0,.89.48,1.72,1.25,2.17l9.6,5.55c.39.22.82.33,1.25.33s.86-.11,1.25-.33l9.6-5.55c.77-.45,1.25-1.27,1.25-2.17v-11.09c0-.89-.48-1.72-1.25-2.17l-9.6-5.55c-.39-.22-.82-.33-1.25-.33h0Z"/>
    </g>
    <rect class="cls-1" width="32" height="32"/>
  </g>
  <g id="Ebene_1_Kopie" data-name="Ebene 1 Kopie">
    <g>
      <path class="cls-3" d="M16,28.34c-.22,0-.43-.06-.62-.17l-9.6-5.54c-.39-.22-.62-.64-.62-1.08v-11.09c0-.45.24-.86.62-1.08L15.38,3.83c.19-.11.41-.17.62-.17s.43.06.62.17l9.6,5.54c.39.22.62.64.62,1.08v11.09c0,.45-.24.86-.62,1.08l-9.6,5.54c-.19.11-.41.17-.62.17Z"/>
      <path class="cls-3" d="M16,4.91l9.6,5.55v11.09l-9.6,5.55-9.6-5.55v-11.09l9.6-5.55M16,2.41c-.43,0-.86.11-1.25.33l-9.6,5.55c-.77.45-1.25,1.27-1.25,2.17v11.09c0,.89.48,1.72,1.25,2.17l9.6,5.55c.39.22.82.33,1.25.33s.86-.11,1.25-.33l9.6-5.55c.77-.45,1.25-1.27,1.25-2.17v-11.09c0-.89-.48-1.72-1.25-2.17l-9.6-5.55c-.39-.22-.82-.33-1.25-.33h0Z"/>
    </g>
    <g>
      <path class="cls-2" d="M9.8,20v-.8l3.29-3.2c.42-.4.71-.73.86-.99.16-.25.23-.52.23-.79,0-.42-.14-.74-.41-.97-.27-.23-.66-.35-1.15-.35-1.05,0-1.64.53-1.76,1.58h-1.07c.05-.8.33-1.42.83-1.86.5-.44,1.17-.66,2.01-.66.54,0,1,.09,1.4.28s.7.45.92.78.33.72.33,1.17c0,.37-.1.74-.31,1.1s-.54.76-1,1.2l-2.65,2.54v.04h4.11v.95h-5.63Z"/>
      <path class="cls-2" d="M19.38,20.12c-.95,0-1.66-.35-2.15-1.04-.49-.69-.73-1.71-.73-3.04s.24-2.34.73-3.04c.49-.7,1.21-1.04,2.15-1.04s1.67.35,2.15,1.04.73,1.71.73,3.04-.25,2.35-.73,3.04c-.49.7-1.21,1.04-2.15,1.04ZM19.38,19.18c.61,0,1.07-.26,1.38-.79.3-.53.46-1.31.46-2.36s-.15-1.84-.46-2.36c-.3-.52-.76-.78-1.38-.78s-1.06.26-1.37.78c-.31.52-.46,1.31-.46,2.36s.15,1.85.46,2.37c.31.52.76.78,1.37.78Z"/>
    </g>
  </g>
</svg>